<?xml version="1.0" encoding="utf-8"?>
<svg version="1.1" id="Capa_1" xmlns="http://www.w3.org/2000/svg" xmlns:xlink="http://www.w3.org/1999/xlink" x="0px" y="0px"
	 viewBox="0 0 357 67" style="enable-background:new 0 0 357 67;" xml:space="preserve">
<style type="text/css">
	.st0{fill:#0F0F0F;}
</style>
<g>
	<path class="st0" d="M42.86,41.96h-19.9l-6.49,8.44l4.39,13.75c3.73,1.47,7.8,2.29,12.05,2.29c4.22,0,8.25-0.8,11.95-2.25
		l4.21-13.6L42.86,41.96z"/>
	<polygon class="st0" points="21.56,33.78 23.29,39.32 42.57,39.32 43.18,37.35 48.55,20.14 38.58,13.07 32.93,9.06 17.3,20.14 	"/>
	<path class="st0" d="M48.1,62.73c5.37-2.8,9.88-7.02,13.01-12.18l-9.55,1.03L48.1,62.73z"/>
	<path class="st0" d="M61.7,17.51l-5.75,1.73l-4.79,1.44l-6.04,19.37L45,40.4l6.17,8.56l11.46-1.23c2.06-4.3,3.22-9.12,3.22-14.21
		C65.85,27.7,64.34,22.25,61.7,17.51"/>
	<path class="st0" d="M4.68,50.44c3.1,5.17,7.59,9.41,12.94,12.23l-3.61-11.29L4.68,50.44z"/>
	<path class="st0" d="M108.21,55.01c-11.88,0-21.51-9.63-21.51-21.51c0-2.08,0.3-4.08,0.84-5.98L75.25,39.49h-0.01
		C78.07,55.13,91.75,67,108.21,67c16.45,0,30.14-11.86,32.96-27.5h-12.3C126.27,48.46,118.01,55.01,108.21,55.01"/>
	<path class="st0" d="M108.21,0C91.75,0,78.07,11.86,75.24,27.5h12.3c2.6-8.96,10.86-15.52,20.66-15.52
		c9.8,0,18.07,6.55,20.66,15.52h-20.66l-12.3,11.99l32.96,0l12.3-11.99C138.34,11.86,124.66,0,108.21,0"/>
	<path class="st0" d="M20.85,40.38l-1.78-5.7l-4.38-14.02L4.33,17.2C1.58,22.01,0,27.58,0,33.51c0,5.05,1.14,9.84,3.17,14.11
		l11.23,1.13L20.85,40.38z"/>
	<path class="st0" d="M31.61,6.75l0.03-1.73l0.07-4.4C20.94,1.01,11.49,6.57,5.77,14.89l9.76,3.26L31.61,6.75z"/>
	<path class="st0" d="M50.34,18.16l9.94-2.99C54.61,6.75,45.16,1.09,34.36,0.62l-0.04,2.42l-0.06,3.72l5.81,4.12L50.34,18.16z"/>
</g>
<g>
	<polygon class="st0" points="160.4,5.59 176.47,5.59 176.47,9.1 164.32,9.1 164.32,16.05 175.4,16.05 174.37,19.52 164.32,19.52 
		164.32,29.67 160.4,29.67 	"/>
	<g>
		<path class="st0" d="M187.16,4.56h4.4l-3.34,4.64h-3.3L187.16,4.56z M178.63,23V11.54h3.72v10.49c0,3.1,1.55,4.51,3.96,4.51
			c2.68,0,4.78-1.82,4.78-5.23v-9.77h3.71v18.13h-3.68v-2.65c-1.27,1.86-3.47,2.92-5.99,2.92C181.25,29.94,178.63,27.36,178.63,23"
			/>
		<path class="st0" d="M198.21,24.58V6.97h3.72v4.58h5.4l-1.03,3.23h-4.37v9.15c0,1.82,0.65,2.48,2.48,2.48h2.92v3.27h-4.02
			C199.96,29.67,198.21,27.92,198.21,24.58"/>
		<path class="st0" d="M219.02,26.64c3.2,0,5.47-2.41,5.47-6.02c0-3.65-2.27-6.05-5.47-6.05c-3.16,0-5.44,2.41-5.44,6.05
			C213.58,24.23,215.85,26.64,219.02,26.64 M213.65,27.02v2.65h-3.68V5.59h3.72v8.57c1.2-1.75,3.44-2.89,6.05-2.89
			c4.75,0,8.53,3.82,8.53,9.36c0,5.5-3.78,9.32-8.53,9.32C217.12,29.94,214.85,28.78,213.65,27.02"/>
		<path class="st0" d="M239.24,26.64c3.2,0,5.43-2.41,5.43-6.02c0-3.65-2.24-6.05-5.43-6.05c-3.2,0-5.4,2.41-5.4,6.05
			C233.84,24.23,236.04,26.64,239.24,26.64 M230.06,20.62c0-5.47,3.99-9.36,9.18-9.36c5.23,0,9.22,3.89,9.22,9.36
			c0,5.44-3.99,9.32-9.22,9.32C234.05,29.94,230.06,26.06,230.06,20.62"/>
	</g>
	<rect x="251.31" y="5.59" class="st0" width="3.72" height="24.08"/>
	<polygon class="st0" points="160.4,37.34 176.47,37.34 176.47,40.82 164.32,40.82 164.32,47.42 175.13,47.42 174.09,50.86 
		164.32,50.86 164.32,57.95 176.71,57.95 176.71,61.42 160.4,61.42 	"/>
	<g>
		<path class="st0" d="M179.15,43.29h3.68v2.61c1.24-1.82,3.34-2.89,5.68-2.89c2.55,0,4.54,1.24,5.5,3.54
			c1.2-2.24,3.65-3.54,6.26-3.54c3.65,0,6.19,2.55,6.19,7.02v11.39h-3.72V51.03c0-3.16-1.48-4.61-3.65-4.61
			c-2.44,0-4.44,1.82-4.44,5.19v9.8h-3.72V51.03c0-3.16-1.48-4.61-3.65-4.61c-2.44,0-4.44,1.82-4.44,5.19v9.8h-3.72V43.29z"/>
		<path class="st0" d="M217.84,58.39c3.2,0,5.43-2.41,5.43-6.02c0-3.65-2.24-6.05-5.43-6.05c-3.2,0-5.4,2.41-5.4,6.05
			C212.44,55.99,214.64,58.39,217.84,58.39 M208.66,52.37c0-5.47,3.99-9.36,9.18-9.36c5.23,0,9.22,3.89,9.22,9.36
			c0,5.44-3.99,9.32-9.22,9.32C212.65,61.7,208.66,57.81,208.66,52.37"/>
		<path class="st0" d="M229.3,56.33V38.72h3.72v4.58h5.4l-1.03,3.23h-4.37v9.15c0,1.82,0.65,2.48,2.48,2.48h2.92v3.27h-4.02
			C231.05,61.42,229.3,59.67,229.3,56.33"/>
		<path class="st0" d="M240.04,43.29h3.72v18.13h-3.72V43.29z M241.9,36.21c1.38,0,2.55,1.07,2.55,2.44c0,1.41-1.17,2.48-2.55,2.48
			c-1.38,0-2.51-1.07-2.51-2.48C239.39,37.27,240.52,36.21,241.9,36.21"/>
		<path class="st0" d="M255.21,58.39c3.2,0,5.43-2.41,5.43-6.02c0-3.65-2.24-6.05-5.43-6.05c-3.2,0-5.4,2.41-5.4,6.05
			C249.81,55.99,252.01,58.39,255.21,58.39 M246.02,52.37c0-5.47,3.99-9.36,9.18-9.36c5.23,0,9.22,3.89,9.22,9.36
			c0,5.44-3.99,9.32-9.22,9.32C250.01,61.7,246.02,57.81,246.02,52.37"/>
		<path class="st0" d="M266.75,43.29h3.68v2.65c1.27-1.86,3.47-2.92,6.05-2.92c3.99,0,6.6,2.58,6.6,7.05v11.35h-3.72V51.07
			c0-3.13-1.58-4.64-4.06-4.64c-2.75,0-4.85,1.86-4.85,5.26v9.73h-3.72V43.29z"/>
	</g>
</g>
</svg>
